# xmcd
#
# Track frame offsets: 
#        150
#        14332
#        37254
#        54208
#        73749
#        96094
#        121911
#        137108
#        153865
#        173427
#
# Disc length: 2520 seconds
#
# Revision: 0
# Processed by: cddbd v1.4PL0 Copyright (c) Steve Scherf et al.
# Submitted via: ExactAudioCopy v0.90b4
#
DISCID=7c09d60a
DTITLE=Syl Johnson - Bridge to a Legacy
DYEAR=1998
DGENRE=R&B
TTITLE0=Who's Still in Love
TTITLE1=I Been Missin' U
TTITLE2=Half a Love
TTITLE3=Unconditional LLove
TTITLE4=Midnight Woman
TTITLE5=Piece of the Rock
TTITLE6=I Don't Know Why
TTITLE7=Let's Get It On Again
TTITLE8=They Can't See Your Good Side
TTITLE9=Sexy Wayz
EXTD=
EXTT0=
EXTT1=
EXTT2=
EXTT3=
EXTT4=
EXTT5=
EXTT6=
EXTT7=
EXTT8=
EXTT9=
PLAYORDER=
